<svg xmlns="http://www.w3.org/2000/svg" width="16" height="16" viewBox="0 0 1024 1024"><path d="M 451 638 L 451 708 L 469 708 L 469 638 Z" fill="black"/><path d="M 368 638 L 368 688 L 369 689 L 369 693 L 370 694 L 370 696 L 371 697 L 371 698 L 372 699 L 372 700 L 375 703 L 375 704 L 376 704 L 379 707 L 381 707 L 382 708 L 383 708 L 384 709 L 400 709 L 401 708 L 403 708 L 404 707 L 405 707 L 406 706 L 407 706 L 408 705 L 409 705 L 414 700 L 414 699 L 415 698 L 416 699 L 416 708 L 432 708 L 432 638 L 415 638 L 415 678 L 414 679 L 414 683 L 413 684 L 413 685 L 412 686 L 412 687 L 408 691 L 407 691 L 406 692 L 405 692 L 404 693 L 400 693 L 399 694 L 398 693 L 394 693 L 393 692 L 392 692 L 391 691 L 390 691 L 388 689 L 388 688 L 387 687 L 387 686 L 386 685 L 386 648 L 385 647 L 386 646 L 386 638 Z" fill="black"/><path d="M 715 637 L 714 638 L 712 638 L 711 639 L 710 639 L 709 640 L 708 640 L 702 646 L 701 645 L 701 638 L 684 638 L 684 708 L 701 708 L 701 670 L 702 669 L 702 665 L 703 664 L 703 663 L 704 662 L 704 661 L 706 659 L 706 658 L 707 657 L 708 657 L 710 655 L 711 655 L 712 654 L 714 654 L 715 653 L 724 653 L 724 637 Z" fill="black"/><path d="M 629 637 L 628 638 L 625 638 L 624 639 L 623 639 L 622 640 L 621 640 L 620 641 L 619 641 L 617 643 L 616 643 L 613 646 L 613 647 L 611 649 L 611 650 L 609 652 L 609 653 L 608 654 L 608 655 L 607 656 L 607 658 L 606 659 L 606 663 L 605 664 L 605 683 L 606 684 L 606 687 L 607 688 L 607 690 L 608 691 L 608 692 L 609 693 L 609 694 L 610 695 L 610 696 L 612 698 L 612 699 L 617 704 L 618 704 L 619 705 L 620 705 L 622 707 L 624 707 L 625 708 L 627 708 L 628 709 L 646 709 L 647 708 L 649 708 L 650 707 L 652 707 L 653 706 L 654 706 L 656 704 L 657 704 L 664 697 L 664 696 L 665 695 L 665 694 L 666 693 L 666 692 L 667 691 L 667 690 L 668 689 L 668 686 L 651 686 L 651 688 L 649 690 L 649 691 L 648 692 L 647 692 L 645 694 L 643 694 L 642 695 L 634 695 L 633 694 L 631 694 L 630 693 L 629 693 L 626 690 L 626 689 L 625 688 L 625 687 L 624 686 L 624 685 L 623 684 L 623 678 L 624 677 L 668 677 L 669 678 L 670 677 L 670 671 L 669 670 L 669 662 L 668 661 L 668 659 L 667 658 L 667 656 L 666 655 L 666 654 L 665 653 L 665 652 L 664 651 L 664 650 L 661 647 L 661 646 L 658 643 L 657 643 L 655 641 L 654 641 L 653 640 L 652 640 L 651 639 L 650 639 L 649 638 L 646 638 L 645 637 Z" fill="black"/><path d="M 572 612 L 572 643 L 571 644 L 568 641 L 567 641 L 566 640 L 565 640 L 564 639 L 563 639 L 562 638 L 560 638 L 559 637 L 546 637 L 545 638 L 543 638 L 542 639 L 540 639 L 539 640 L 538 640 L 536 642 L 535 642 L 529 648 L 529 649 L 527 651 L 527 652 L 526 653 L 526 654 L 525 655 L 525 657 L 524 658 L 524 660 L 523 661 L 523 665 L 522 666 L 522 682 L 523 683 L 523 686 L 524 687 L 524 690 L 525 691 L 525 692 L 526 693 L 526 694 L 527 695 L 527 696 L 529 698 L 529 699 L 535 705 L 536 705 L 537 706 L 538 706 L 539 707 L 540 707 L 541 708 L 543 708 L 544 709 L 559 709 L 560 708 L 562 708 L 563 707 L 564 707 L 565 706 L 566 706 L 568 704 L 569 704 L 571 702 L 571 701 L 572 700 L 573 701 L 573 708 L 590 708 L 590 612 Z" fill="black"/><path d="M 489 612 L 489 708 L 507 708 L 507 612 Z" fill="black"/><path d="M 451 611 L 451 627 L 469 627 L 469 611 Z" fill="black"/><path d="M 281 611 L 281 708 L 327 708 L 328 707 L 332 707 L 333 706 L 335 706 L 336 705 L 338 705 L 339 704 L 340 704 L 341 703 L 342 703 L 349 696 L 349 695 L 350 694 L 350 693 L 351 692 L 351 691 L 352 690 L 352 687 L 353 686 L 353 676 L 352 675 L 352 673 L 351 672 L 351 670 L 350 669 L 350 668 L 347 665 L 347 664 L 346 664 L 343 661 L 342 661 L 341 660 L 340 660 L 339 659 L 337 659 L 336 658 L 337 657 L 339 657 L 342 654 L 343 654 L 345 652 L 345 651 L 347 649 L 347 648 L 348 647 L 348 646 L 349 645 L 349 642 L 350 641 L 350 632 L 349 631 L 349 628 L 348 627 L 348 626 L 347 625 L 347 624 L 346 623 L 346 622 L 340 616 L 339 616 L 338 615 L 337 615 L 336 614 L 335 614 L 334 613 L 332 613 L 331 612 L 328 612 L 327 611 Z" fill="black"/><path d="M 725 438 L 724 439 L 721 439 L 720 440 L 719 440 L 718 441 L 717 441 L 715 443 L 714 443 L 709 448 L 708 448 L 706 446 L 706 441 L 682 441 L 682 596 L 683 597 L 682 598 L 682 601 L 683 602 L 682 603 L 682 604 L 683 605 L 682 606 L 683 607 L 682 608 L 683 609 L 708 609 L 708 576 L 709 575 L 711 577 L 712 577 L 715 580 L 716 580 L 718 582 L 719 582 L 720 583 L 722 583 L 723 584 L 725 584 L 726 585 L 734 585 L 735 584 L 738 584 L 739 583 L 741 583 L 742 582 L 743 582 L 744 581 L 745 581 L 747 579 L 748 579 L 754 573 L 754 572 L 756 570 L 756 569 L 757 568 L 757 567 L 758 566 L 758 565 L 759 564 L 759 563 L 760 562 L 760 560 L 761 559 L 761 556 L 762 555 L 762 549 L 763 548 L 763 473 L 762 472 L 762 465 L 761 464 L 761 461 L 760 460 L 760 458 L 759 457 L 759 456 L 758 455 L 758 454 L 757 453 L 757 452 L 754 449 L 754 448 L 753 447 L 752 447 L 748 443 L 747 443 L 746 442 L 745 442 L 744 441 L 742 441 L 741 440 L 739 440 L 738 439 L 734 439 L 733 438 Z" fill="black"/><path d="M 623 438 L 622 439 L 618 439 L 617 440 L 615 440 L 614 441 L 612 441 L 610 443 L 609 443 L 608 444 L 607 444 L 601 450 L 601 451 L 599 453 L 599 454 L 598 455 L 598 456 L 597 457 L 597 458 L 596 459 L 596 461 L 595 462 L 595 464 L 594 465 L 594 469 L 593 470 L 593 479 L 592 480 L 592 486 L 616 486 L 616 476 L 617 475 L 617 471 L 618 470 L 618 469 L 619 468 L 619 467 L 620 466 L 620 465 L 622 463 L 623 463 L 624 462 L 625 462 L 626 461 L 633 461 L 634 462 L 635 462 L 636 463 L 637 463 L 640 466 L 640 467 L 641 468 L 641 469 L 642 470 L 642 474 L 643 475 L 643 497 L 642 498 L 641 498 L 640 499 L 635 499 L 634 500 L 629 500 L 628 501 L 624 501 L 623 502 L 620 502 L 619 503 L 617 503 L 616 504 L 614 504 L 613 505 L 611 505 L 610 506 L 609 506 L 608 507 L 607 507 L 606 508 L 605 508 L 603 510 L 602 510 L 594 518 L 594 519 L 593 520 L 593 521 L 591 523 L 591 525 L 590 526 L 590 528 L 589 529 L 589 532 L 588 533 L 588 538 L 587 539 L 587 556 L 588 557 L 588 561 L 589 562 L 589 564 L 590 565 L 590 567 L 591 568 L 591 569 L 592 570 L 592 571 L 594 573 L 594 574 L 601 581 L 602 581 L 603 582 L 604 582 L 605 583 L 607 583 L 608 584 L 612 584 L 613 585 L 621 585 L 622 584 L 626 584 L 627 583 L 629 583 L 630 582 L 631 582 L 633 580 L 634 580 L 637 577 L 638 577 L 638 576 L 642 572 L 642 571 L 643 570 L 644 571 L 644 573 L 645 574 L 645 581 L 646 582 L 669 582 L 669 581 L 668 580 L 668 579 L 669 578 L 669 577 L 668 576 L 669 575 L 669 480 L 668 479 L 668 469 L 667 468 L 667 464 L 666 463 L 666 461 L 665 460 L 665 459 L 664 458 L 664 456 L 662 454 L 662 453 L 654 445 L 653 445 L 652 444 L 651 444 L 650 443 L 649 443 L 648 442 L 647 442 L 646 441 L 644 441 L 643 440 L 641 440 L 640 439 L 635 439 L 634 438 Z" fill="black"/><path d="M 429 385 L 429 582 L 454 582 L 454 442 L 455 441 L 456 442 L 456 445 L 457 446 L 457 449 L 458 450 L 458 452 L 459 453 L 459 456 L 460 457 L 460 459 L 461 460 L 461 463 L 462 464 L 462 466 L 463 467 L 463 470 L 464 471 L 464 473 L 465 474 L 465 477 L 466 478 L 466 481 L 467 482 L 467 484 L 468 485 L 468 488 L 469 489 L 469 491 L 470 492 L 470 495 L 471 496 L 471 499 L 472 500 L 472 502 L 473 503 L 473 506 L 474 507 L 474 510 L 475 511 L 475 513 L 476 514 L 476 517 L 477 518 L 477 520 L 478 521 L 478 524 L 479 525 L 479 528 L 480 529 L 480 531 L 481 532 L 481 535 L 482 536 L 482 539 L 483 540 L 483 542 L 484 543 L 484 546 L 485 547 L 485 550 L 486 551 L 486 553 L 487 554 L 487 557 L 488 558 L 488 560 L 489 561 L 489 564 L 490 565 L 490 568 L 491 569 L 491 571 L 492 572 L 492 575 L 493 576 L 493 579 L 494 580 L 494 582 L 509 582 L 509 581 L 510 580 L 510 577 L 511 576 L 511 574 L 512 573 L 512 570 L 513 569 L 513 566 L 514 565 L 514 562 L 515 561 L 515 559 L 516 558 L 516 555 L 517 554 L 517 551 L 518 550 L 518 547 L 519 546 L 519 544 L 520 543 L 520 540 L 521 539 L 521 536 L 522 535 L 522 532 L 523 531 L 523 529 L 524 528 L 524 525 L 525 524 L 525 521 L 526 520 L 526 517 L 527 516 L 527 514 L 528 513 L 528 510 L 529 509 L 529 506 L 530 505 L 530 503 L 531 502 L 531 499 L 532 498 L 532 495 L 533 494 L 533 492 L 534 491 L 534 488 L 535 487 L 535 484 L 536 483 L 536 481 L 537 480 L 537 477 L 538 476 L 538 474 L 539 473 L 539 470 L 540 469 L 540 467 L 541 466 L 541 463 L 542 462 L 542 460 L 543 459 L 543 456 L 544 455 L 544 452 L 545 451 L 545 449 L 546 448 L 546 445 L 547 444 L 548 445 L 548 582 L 575 582 L 575 385 L 535 385 L 535 387 L 534 388 L 534 391 L 533 392 L 533 395 L 532 396 L 532 399 L 531 400 L 531 403 L 530 404 L 530 407 L 529 408 L 529 411 L 528 412 L 528 415 L 527 416 L 527 419 L 526 420 L 526 423 L 525 424 L 525 427 L 524 428 L 524 431 L 523 432 L 523 435 L 522 436 L 522 439 L 521 440 L 521 443 L 520 444 L 520 447 L 519 448 L 519 451 L 518 452 L 518 455 L 517 456 L 517 459 L 516 460 L 516 463 L 515 464 L 515 466 L 514 467 L 514 470 L 513 471 L 513 474 L 512 475 L 512 478 L 511 479 L 511 482 L 510 483 L 510 486 L 509 487 L 509 490 L 508 491 L 508 494 L 507 495 L 507 498 L 506 499 L 506 502 L 505 503 L 505 506 L 504 507 L 504 510 L 503 511 L 503 513 L 502 514 L 501 513 L 501 510 L 500 509 L 500 506 L 499 505 L 499 503 L 498 502 L 498 499 L 497 498 L 497 495 L 496 494 L 496 491 L 495 490 L 495 487 L 494 486 L 494 483 L 493 482 L 493 479 L 492 478 L 492 475 L 491 474 L 491 472 L 490 471 L 490 468 L 489 467 L 489 464 L 488 463 L 488 460 L 487 459 L 487 456 L 486 455 L 486 452 L 485 451 L 485 448 L 484 447 L 484 444 L 483 443 L 483 440 L 482 439 L 482 437 L 481 436 L 481 433 L 480 432 L 480 429 L 479 428 L 479 425 L 478 424 L 478 421 L 477 420 L 477 417 L 476 416 L 476 413 L 475 412 L 475 409 L 474 408 L 474 405 L 473 404 L 473 402 L 472 401 L 472 397 L 471 396 L 471 394 L 470 393 L 470 390 L 469 389 L 469 386 L 468 385 Z" fill="black"/><path d="M 281 385 L 281 582 L 314 582 L 314 501 L 315 500 L 335 500 L 337 502 L 337 503 L 338 504 L 338 505 L 339 506 L 339 507 L 340 508 L 340 509 L 341 510 L 341 511 L 342 512 L 342 513 L 343 514 L 343 516 L 344 517 L 344 518 L 345 519 L 345 520 L 346 521 L 346 522 L 347 523 L 347 524 L 348 525 L 348 526 L 349 527 L 349 528 L 350 529 L 350 530 L 351 531 L 351 533 L 352 534 L 352 535 L 353 536 L 353 537 L 354 538 L 354 539 L 355 540 L 355 541 L 356 542 L 356 543 L 357 544 L 357 545 L 358 546 L 358 547 L 359 548 L 359 550 L 360 551 L 360 552 L 361 553 L 361 554 L 362 555 L 362 556 L 363 557 L 363 558 L 364 559 L 364 560 L 365 561 L 365 562 L 366 563 L 366 564 L 367 565 L 367 566 L 368 567 L 368 568 L 369 569 L 369 570 L 370 571 L 370 573 L 371 574 L 371 575 L 372 576 L 372 577 L 373 578 L 373 579 L 374 580 L 374 581 L 375 582 L 410 582 L 410 581 L 409 580 L 409 579 L 408 578 L 408 577 L 407 576 L 407 575 L 406 574 L 406 573 L 405 572 L 405 571 L 404 570 L 404 569 L 403 568 L 403 567 L 402 566 L 402 565 L 401 564 L 401 563 L 400 562 L 400 561 L 399 560 L 399 559 L 398 558 L 398 557 L 397 556 L 397 555 L 396 554 L 396 553 L 395 552 L 395 551 L 394 550 L 394 549 L 393 548 L 393 547 L 392 546 L 392 545 L 391 544 L 391 543 L 390 542 L 390 541 L 389 540 L 389 539 L 388 538 L 388 537 L 387 536 L 387 535 L 386 534 L 386 533 L 384 531 L 384 529 L 382 527 L 382 526 L 381 525 L 381 524 L 380 523 L 380 522 L 379 521 L 379 520 L 378 519 L 378 518 L 377 517 L 377 516 L 376 515 L 376 514 L 375 513 L 375 512 L 374 511 L 374 510 L 373 509 L 373 508 L 372 507 L 372 506 L 371 505 L 371 504 L 370 503 L 370 502 L 369 501 L 369 500 L 368 499 L 368 498 L 367 497 L 367 496 L 368 495 L 370 495 L 371 494 L 373 494 L 374 493 L 375 493 L 376 492 L 377 492 L 378 491 L 379 491 L 380 490 L 381 490 L 383 488 L 384 488 L 387 485 L 388 485 L 393 480 L 393 479 L 396 476 L 396 475 L 397 474 L 397 473 L 398 472 L 398 471 L 399 470 L 399 469 L 400 468 L 400 467 L 401 466 L 401 464 L 402 463 L 402 461 L 403 460 L 403 456 L 404 455 L 404 445 L 405 444 L 405 440 L 404 439 L 404 430 L 403 429 L 403 425 L 402 424 L 402 422 L 401 421 L 401 419 L 400 418 L 400 417 L 399 416 L 399 415 L 398 414 L 398 413 L 397 412 L 397 411 L 396 410 L 396 409 L 394 407 L 394 406 L 390 402 L 390 401 L 389 401 L 388 400 L 388 399 L 387 399 L 383 395 L 382 395 L 380 393 L 379 393 L 378 392 L 377 392 L 376 391 L 375 391 L 374 390 L 373 390 L 372 389 L 370 389 L 369 388 L 367 388 L 366 387 L 363 387 L 362 386 L 357 386 L 356 385 Z" fill="black"/><path d="M 717 207 L 717 240 L 716 241 L 716 242 L 717 242 L 718 243 L 731 243 L 732 244 L 740 244 L 741 245 L 745 245 L 746 246 L 749 246 L 750 247 L 753 247 L 754 248 L 756 248 L 757 249 L 758 249 L 759 250 L 760 250 L 761 251 L 762 251 L 763 252 L 764 252 L 765 253 L 766 253 L 768 255 L 769 255 L 773 259 L 774 259 L 776 261 L 776 262 L 780 266 L 780 267 L 782 269 L 782 270 L 784 272 L 784 273 L 785 274 L 785 276 L 786 277 L 786 278 L 787 279 L 787 281 L 788 282 L 788 284 L 789 285 L 789 288 L 790 289 L 790 294 L 791 295 L 791 304 L 792 305 L 792 416 L 793 417 L 793 429 L 794 430 L 794 436 L 795 437 L 795 441 L 796 442 L 796 445 L 797 446 L 797 448 L 798 449 L 798 451 L 799 452 L 799 454 L 800 455 L 800 457 L 801 458 L 801 459 L 802 460 L 802 461 L 803 462 L 803 463 L 804 464 L 804 465 L 805 466 L 805 467 L 806 468 L 806 469 L 807 470 L 807 471 L 809 473 L 809 474 L 812 477 L 812 478 L 817 483 L 817 484 L 822 489 L 823 489 L 828 494 L 829 494 L 831 496 L 832 496 L 834 498 L 835 498 L 836 499 L 837 499 L 839 501 L 840 501 L 841 502 L 843 502 L 844 503 L 845 503 L 846 504 L 847 504 L 848 505 L 850 505 L 851 506 L 850 507 L 849 507 L 848 508 L 847 508 L 846 509 L 844 509 L 843 510 L 842 510 L 841 511 L 840 511 L 839 512 L 838 512 L 837 513 L 836 513 L 834 515 L 833 515 L 831 517 L 830 517 L 828 519 L 827 519 L 813 533 L 813 534 L 810 537 L 810 538 L 808 540 L 808 541 L 807 542 L 807 543 L 805 545 L 805 546 L 804 547 L 804 548 L 803 549 L 803 550 L 802 551 L 802 553 L 801 554 L 801 555 L 800 556 L 800 558 L 799 559 L 799 560 L 798 561 L 798 564 L 797 565 L 797 567 L 796 568 L 796 571 L 795 572 L 795 576 L 794 577 L 794 583 L 793 584 L 793 594 L 792 595 L 792 716 L 791 717 L 791 726 L 790 727 L 790 732 L 789 733 L 789 736 L 788 737 L 788 739 L 787 740 L 787 742 L 786 743 L 786 744 L 785 745 L 785 746 L 784 747 L 784 748 L 783 749 L 783 750 L 781 752 L 781 753 L 770 764 L 769 764 L 767 766 L 766 766 L 765 767 L 764 767 L 763 768 L 762 768 L 761 769 L 760 769 L 759 770 L 758 770 L 757 771 L 755 771 L 754 772 L 751 772 L 750 773 L 747 773 L 746 774 L 742 774 L 741 775 L 733 775 L 732 776 L 717 776 L 717 812 L 733 812 L 734 811 L 745 811 L 746 810 L 752 810 L 753 809 L 757 809 L 758 808 L 762 808 L 763 807 L 766 807 L 767 806 L 769 806 L 770 805 L 772 805 L 773 804 L 775 804 L 776 803 L 778 803 L 779 802 L 780 802 L 781 801 L 782 801 L 783 800 L 784 800 L 785 799 L 786 799 L 787 798 L 788 798 L 789 797 L 790 797 L 792 795 L 793 795 L 795 793 L 796 793 L 799 790 L 800 790 L 810 780 L 810 779 L 813 776 L 813 775 L 815 773 L 815 772 L 816 771 L 816 770 L 818 768 L 818 767 L 819 766 L 819 765 L 820 764 L 820 763 L 821 762 L 821 760 L 822 759 L 822 758 L 823 757 L 823 755 L 824 754 L 824 751 L 825 750 L 825 748 L 826 747 L 826 744 L 827 743 L 827 738 L 828 737 L 828 731 L 829 730 L 829 711 L 830 710 L 830 709 L 829 708 L 830 707 L 830 703 L 829 702 L 830 701 L 830 699 L 829 698 L 829 696 L 830 695 L 830 591 L 831 590 L 831 585 L 832 584 L 832 580 L 833 579 L 833 576 L 834 575 L 834 573 L 835 572 L 835 570 L 836 569 L 836 567 L 837 566 L 837 565 L 838 564 L 838 563 L 839 562 L 839 561 L 840 560 L 840 559 L 842 557 L 842 556 L 844 554 L 844 553 L 848 549 L 848 548 L 852 544 L 853 544 L 857 540 L 858 540 L 860 538 L 861 538 L 862 537 L 863 537 L 864 536 L 865 536 L 866 535 L 867 535 L 868 534 L 869 534 L 870 533 L 872 533 L 873 532 L 875 532 L 876 531 L 881 531 L 882 530 L 890 530 L 890 483 L 883 483 L 882 482 L 878 482 L 877 481 L 874 481 L 873 480 L 871 480 L 870 479 L 868 479 L 867 478 L 866 478 L 865 477 L 864 477 L 863 476 L 862 476 L 860 474 L 859 474 L 856 471 L 855 471 L 845 461 L 845 460 L 843 458 L 843 457 L 841 455 L 841 454 L 840 453 L 840 452 L 839 451 L 839 450 L 838 449 L 838 448 L 837 447 L 837 446 L 836 445 L 836 443 L 835 442 L 835 440 L 834 439 L 834 437 L 833 436 L 833 433 L 832 432 L 832 428 L 831 427 L 831 422 L 830 421 L 830 303 L 829 302 L 829 288 L 828 287 L 828 281 L 827 280 L 827 276 L 826 275 L 826 272 L 825 271 L 825 268 L 824 267 L 824 265 L 823 264 L 823 262 L 822 261 L 822 260 L 821 259 L 821 257 L 820 256 L 820 255 L 819 254 L 819 253 L 818 252 L 818 251 L 817 250 L 817 249 L 815 247 L 815 246 L 813 244 L 813 243 L 810 240 L 810 239 L 798 227 L 797 227 L 795 225 L 794 225 L 792 223 L 791 223 L 789 221 L 788 221 L 787 220 L 786 220 L 785 219 L 784 219 L 783 218 L 782 218 L 781 217 L 779 217 L 778 216 L 777 216 L 776 215 L 774 215 L 773 214 L 771 214 L 770 213 L 768 213 L 767 212 L 764 212 L 763 211 L 760 211 L 759 210 L 754 210 L 753 209 L 747 209 L 746 208 L 737 208 L 736 207 Z" fill="black"/><path d="M 287 207 L 286 208 L 277 208 L 276 209 L 269 209 L 268 210 L 264 210 L 263 211 L 260 211 L 259 212 L 256 212 L 255 213 L 253 213 L 252 214 L 250 214 L 249 215 L 247 215 L 246 216 L 245 216 L 244 217 L 243 217 L 242 218 L 241 218 L 240 219 L 239 219 L 238 220 L 237 220 L 236 221 L 235 221 L 234 222 L 233 222 L 231 224 L 230 224 L 228 226 L 227 226 L 222 231 L 221 231 L 217 235 L 217 236 L 212 241 L 212 242 L 210 244 L 210 245 L 208 247 L 208 248 L 207 249 L 207 250 L 205 252 L 205 254 L 204 255 L 204 256 L 203 257 L 203 258 L 202 259 L 202 260 L 201 261 L 201 263 L 200 264 L 200 266 L 199 267 L 199 269 L 198 270 L 198 273 L 197 274 L 197 278 L 196 279 L 196 283 L 195 284 L 195 292 L 194 293 L 194 412 L 193 413 L 193 423 L 192 424 L 192 429 L 191 430 L 191 433 L 190 434 L 190 437 L 189 438 L 189 440 L 188 441 L 188 442 L 187 443 L 187 445 L 186 446 L 186 447 L 185 448 L 185 449 L 184 450 L 184 451 L 183 452 L 183 453 L 182 454 L 182 455 L 180 457 L 180 458 L 177 461 L 177 462 L 168 471 L 167 471 L 164 474 L 163 474 L 162 475 L 161 475 L 159 477 L 158 477 L 157 478 L 155 478 L 154 479 L 153 479 L 152 480 L 150 480 L 149 481 L 146 481 L 145 482 L 141 482 L 140 483 L 133 483 L 133 530 L 141 530 L 142 531 L 146 531 L 147 532 L 150 532 L 151 533 L 153 533 L 154 534 L 155 534 L 156 535 L 157 535 L 158 536 L 159 536 L 160 537 L 161 537 L 162 538 L 163 538 L 165 540 L 166 540 L 170 544 L 171 544 L 177 550 L 177 551 L 180 554 L 180 555 L 182 557 L 182 558 L 183 559 L 183 560 L 184 561 L 184 562 L 185 563 L 185 564 L 186 565 L 186 566 L 187 567 L 187 568 L 188 569 L 188 571 L 189 572 L 189 574 L 190 575 L 190 577 L 191 578 L 191 582 L 192 583 L 192 588 L 193 589 L 193 600 L 194 601 L 194 728 L 195 729 L 195 736 L 196 737 L 196 741 L 197 742 L 197 746 L 198 747 L 198 749 L 199 750 L 199 753 L 200 754 L 200 755 L 201 756 L 201 758 L 202 759 L 202 760 L 203 761 L 203 763 L 204 764 L 204 765 L 205 766 L 205 767 L 206 768 L 206 769 L 208 771 L 208 772 L 210 774 L 210 775 L 212 777 L 212 778 L 225 791 L 226 791 L 229 794 L 230 794 L 232 796 L 233 796 L 235 798 L 236 798 L 237 799 L 238 799 L 239 800 L 240 800 L 241 801 L 242 801 L 243 802 L 245 802 L 246 803 L 247 803 L 248 804 L 250 804 L 251 805 L 253 805 L 254 806 L 256 806 L 257 807 L 260 807 L 261 808 L 264 808 L 265 809 L 269 809 L 270 810 L 277 810 L 278 811 L 287 811 L 288 812 L 306 812 L 306 776 L 291 776 L 290 775 L 282 775 L 281 774 L 277 774 L 276 773 L 273 773 L 272 772 L 270 772 L 269 771 L 267 771 L 266 770 L 264 770 L 263 769 L 262 769 L 261 768 L 260 768 L 259 767 L 258 767 L 256 765 L 255 765 L 253 763 L 252 763 L 244 755 L 244 754 L 241 751 L 241 750 L 240 749 L 240 748 L 239 747 L 239 746 L 238 745 L 238 744 L 237 743 L 237 741 L 236 740 L 236 738 L 235 737 L 235 734 L 234 733 L 234 730 L 233 729 L 233 723 L 232 722 L 232 605 L 231 604 L 231 589 L 230 588 L 230 581 L 229 580 L 229 576 L 228 575 L 228 571 L 227 570 L 227 567 L 226 566 L 226 564 L 225 563 L 225 561 L 224 560 L 224 558 L 223 557 L 223 555 L 222 554 L 222 553 L 221 552 L 221 551 L 220 550 L 220 549 L 219 548 L 219 547 L 218 546 L 218 545 L 217 544 L 217 543 L 215 541 L 215 540 L 213 538 L 213 537 L 210 534 L 210 533 L 197 520 L 196 520 L 193 517 L 192 517 L 190 515 L 189 515 L 188 514 L 187 514 L 185 512 L 184 512 L 183 511 L 181 511 L 180 510 L 179 510 L 178 509 L 177 509 L 176 508 L 174 508 L 172 506 L 173 505 L 175 505 L 176 504 L 177 504 L 178 503 L 179 503 L 180 502 L 181 502 L 182 501 L 183 501 L 184 500 L 185 500 L 186 499 L 187 499 L 189 497 L 190 497 L 192 495 L 193 495 L 195 493 L 196 493 L 210 479 L 210 478 L 213 475 L 213 474 L 215 472 L 215 471 L 216 470 L 216 469 L 218 467 L 218 466 L 219 465 L 219 464 L 220 463 L 220 462 L 221 461 L 221 460 L 222 459 L 222 457 L 223 456 L 223 455 L 224 454 L 224 452 L 225 451 L 225 449 L 226 448 L 226 446 L 227 445 L 227 442 L 228 441 L 228 438 L 229 437 L 229 432 L 230 431 L 230 425 L 231 424 L 231 408 L 232 407 L 232 303 L 233 302 L 233 294 L 234 293 L 234 289 L 235 288 L 235 284 L 236 283 L 236 281 L 237 280 L 237 278 L 238 277 L 238 276 L 239 275 L 239 274 L 240 273 L 240 272 L 241 271 L 241 270 L 243 268 L 243 267 L 246 264 L 246 263 L 252 257 L 253 257 L 256 254 L 257 254 L 258 253 L 259 253 L 261 251 L 262 251 L 263 250 L 265 250 L 266 249 L 267 249 L 268 248 L 270 248 L 271 247 L 273 247 L 274 246 L 277 246 L 278 245 L 283 245 L 284 244 L 290 244 L 291 243 L 303 243 L 304 242 L 307 242 L 307 207 Z" fill="black"/></svg>